# xmcd
#
# Track frame offsets:
#	150
#	12211
#	25726
#	34959
#	48699
#	60780
#	73773
#	89826
#	101625
#	114306
#	124537
#	136962
#	154016
#	169203
#	183698
#	192550
#	204020
#	214690
#	228306
#	241504
#	253010
#	265460
#	281035
#	295844
#
# Disc length: 4118 seconds
#
# Revision: 2
# Processed by: cddbd v1.5.1PL2 Copyright (c) Steve Scherf et al.
# Submitted via: audiograbber 1.83.01
#
DISCID=5c101418
DTITLE=The Greatest Country Music Recordings Of All Time - A Woman's Side Of Lo
DTITLE=ve (29&30)
DYEAR=1900
DGENRE=
TTITLE0=Tammy Wuyette - Stand By Your Man
TTITLE1=Brenda Lee - Tell Me What It's Like
TTITLE2=Tammy Wuyette - Your Good Girls Gonna Go Bad
TTITLE3=Tammy Wuyette - 'Til I Can Make It On My Own
TTITLE4=Brenda Lee - I'm Sorry
TTITLE5=Tammy Wuyette - Womanhood
TTITLE6=Billie Joe Spears - Blanket On The Ground
TTITLE7=Wanda Jackson - Right Or Wrong
TTITLE8=Donna Fargo - Funny Face
TTITLE9=Charly McClain - Who's Cheatin' Who
TTITLE10=Brenda Lee - All Alone Am I
TTITLE11=Brenda Lee - Broken Trust
TTITLE12=Jeanne Pruett - Satin' Sheets
TTITLE13=Melba Montgomery - No Charge
TTITLE14=Blue Heartache - Gail Davis
TTITLE15=Brenda Lee - Losing You
TTITLE16=Tammy Wuyette - Singing My Song
TTITLE17=Janie Fricke - Pass Me By
TTITLE18=Tammy Wuyette - D-I-V-O-R-C-E
TTITLE19=Dottie West - Here Comes My Baby
TTITLE20=Reba McEntire - (You Lift Me Up) To Heaven
TTITLE21=Margo Smith - Still A Woman
TTITLE22=Brenda Lee - Johnny One-Time
TTITLE23=Lacy J. Dalton - Crazy Blue Eyes
EXTD=
EXTT0=
EXTT1=
EXTT2=
EXTT3=
EXTT4=
EXTT5=
EXTT6=
EXTT7=
EXTT8=
EXTT9=
EXTT10=
EXTT11=
EXTT12=
EXTT13=
EXTT14=
EXTT15=
EXTT16=
EXTT17=
EXTT18=
EXTT19=
EXTT20=
EXTT21=
EXTT22=
EXTT23=
PLAYORDER=
